<svg xmlns="http://www.w3.org/2000/svg" viewBox="0 0 115.99 107.97"><defs><style>.cls-1{fill:#100484;}</style></defs><g id="Layer_2" data-name="Layer 2"><g id="Layer_1-2" data-name="Layer 1"><path class="cls-1" d="M6.44,18.52c.75,3,1.36,5.45,2.19,8.76,6.12-4.82,12-6.63,18.71-3.62.69.31,1.89-.34,2.8-.68,18.54-7,37.08-7.19,55.63-.06.93.36,2.12,1.1,2.81.79,6.66-2.94,12.62-1.48,18.68,3.67.9-3.37,1.56-5.83,2.31-8.65-2.11-.46-3.71-.68-5.23-1.16A8.3,8.3,0,0,1,98.06,9c0-4.32,2.28-7.24,6.42-8.5a8.18,8.18,0,0,1,9.67,3.34c2.51,3.49,2.41,7.06-.08,10.66-4,5.77-6.2,11.89-4.2,19.11.63,2.27.83,5.43-.28,7.26-2.25,3.7-1.29,6.77-.21,10.37a62.69,62.69,0,0,1,2.51,12.72c1.65,20-8.48,34.6-28.25,40.46a87,87,0,0,1-46.92.69C13.78,99.24,2.81,82.37,6.42,59a51.34,51.34,0,0,1,1.4-6.85c1-3.58,1.95-6.86-1-10.24C5.7,40.59,5,37.72,5.66,36.25,8,30.92,6.64,26,5.09,21a17,17,0,0,0-2.53-5.55C-.39,11.65-1,7.82,1.75,3.92,4.18.41,7.72-.87,11.85.6S18.18,5,18,9.34C17.69,14.11,15,17,10.32,17.89,9.36,18.08,8.38,18.21,6.44,18.52Zm52.74,88.13c11.23-.69,22.07-2.13,32.11-7.28,9.74-5,16.13-12.71,18.32-23.61,5.3-26.31-11.68-51-38.08-55.08a90.7,90.7,0,0,0-17.42-.93C26.37,21,12.69,32.66,8.31,58.49,4.44,81.37,15,98,37.52,103.4,44.59,105.11,52,105.6,59.18,106.65ZM114.1,8.9a7.26,7.26,0,0,0-7-7,7.18,7.18,0,0,0-.24,14.35A7.3,7.3,0,0,0,114.1,8.9ZM16.19,8.72A7.36,7.36,0,0,0,9,1.83a7.34,7.34,0,0,0-7.1,7.52A7.28,7.28,0,0,0,9.1,16.23,7.23,7.23,0,0,0,16.19,8.72Zm7.38,16C18.5,23,12.81,25,9.41,30.29c-3,4.66-2.77,8.71.84,12.56,2.08-3.18,4-6.41,6.21-9.42S21.22,27.57,23.57,24.71Zm83.21,17.06c2.66-3.91,2.32-8.49-1.16-12.78-3.66-4.52-8.87-5.93-13.78-3.9Z"/><path class="cls-1" d="M59.17,37.79c6,0,12-.27,18,.05,14.08.74,23.94,11.22,24.68,25.88.73,14.45-8.63,27.49-22.31,28.57a268.59,268.59,0,0,1-41.3,0C24.73,91.28,15.58,78.7,16,64.2S26,39,39.7,38c6.46-.46,13-.08,19.47-.08Zm.21,1.78v.11c-6.49,0-13-.33-19.47.07-12.36.76-21.3,10.55-22,23.62C17.09,76.8,25.1,89.2,37.27,90.27a244.79,244.79,0,0,0,42.29.15C92.53,89.31,100.81,77,100,63.3S89.78,40.17,76.37,39.61C70.72,39.37,65.05,39.57,59.38,39.57Z"/><path class="cls-1" d="M73.82,71.86c.27,7.7-5.71,13.32-14.15,13.62-9.09.33-15.66-5.13-15.91-13.62Zm-1.95,1.8H45.78c1.36,6.59,6.58,10.28,13.69,10C66.18,83.48,71,79.69,71.87,73.66Z"/><path class="cls-1" d="M86.88,62.32c-4.83-8.36-8.2-8.39-13.43-1-.19-4.29,2.25-7.13,6.27-7.3S86.54,56.64,86.88,62.32Z"/><path class="cls-1" d="M44.14,62.22c-5.6-8.41-8.85-8.41-13.42-.75-.68-3.8,1.42-6.7,5.28-7.3C40.34,53.49,43.4,56.19,44.14,62.22Z"/></g></g></svg>