<svg xmlns="http://www.w3.org/2000/svg" viewBox="0 0 200 176.68"><g id="Layer_2" data-name="Layer 2"><g id="Layer_1-2" data-name="Layer 1"><path d="M99.56,175.31A85,85,0,0,1,69.37,170c-1.48-.55-2.9-1.3-4.36-1.94a3,3,0,0,0-1.43-.36,2.55,2.55,0,0,1-1.22-.42,2.88,2.88,0,0,0-2.56,0,188.17,188.17,0,0,1-18.66,7.35,44.25,44.25,0,0,1-8.13,2,10.38,10.38,0,0,1-2.49,0,3.06,3.06,0,0,1-2.92-3.19,14.7,14.7,0,0,1,1-5.87,60.55,60.55,0,0,1,5-10.32c1.24-2.14,2.53-4.24,3.9-6.28a1.17,1.17,0,0,0-.18-1.75,88.84,88.84,0,0,1-9.51-11.43c-1.28-1.79-2.44-3.66-3.55-5.56a.93.93,0,0,1-.19-.35c0-.82-.6-1.23-1.18-1.62a51.16,51.16,0,0,1-8.67-7.77,49.79,49.79,0,0,1-8.92-14.43,66.39,66.39,0,0,1-5-20.48c-.1-1-.11-2.06-.13-3.09C.06,82.22,0,80,0,77.69A89.43,89.43,0,0,1,3.19,54.51a46.86,46.86,0,0,1,8-16.22,27.11,27.11,0,0,1,3.6-3.67A36.28,36.28,0,0,1,21,29.94a43.7,43.7,0,0,1,8.85-3.63c.64-.19,1.24-.46,1.87-.68a43.39,43.39,0,0,1,6.49-1.52,6.09,6.09,0,0,1,1.54-.3.83.83,0,0,0,.71-.49,5.87,5.87,0,0,1,1.76-1.85A87.19,87.19,0,0,1,73.93,3.83a84.55,84.55,0,0,1,13.63-3C89.63.57,91.71.38,93.8.22A81.16,81.16,0,0,1,104.49.13a85.08,85.08,0,0,1,18.26,3,87,87,0,0,1,33.79,18c.68.58,1.09,1.41,1.83,1.94.26.19.46.46.83.51,2.62.32,5.09,1.25,7.66,1.81a35.77,35.77,0,0,1,16.65,9,44.37,44.37,0,0,1,11.25,16.41,62.71,62.71,0,0,1,3.93,13.59c.5,3.14,1,6.3,1.16,9.49a81.68,81.68,0,0,1,.08,8.28,72.56,72.56,0,0,1-2,13.9,76.68,76.68,0,0,1-3.22,11,55.14,55.14,0,0,1-7,12.4,54.55,54.55,0,0,1-5.51,6.45,36.51,36.51,0,0,1-4.43,3.72c-.7.5-1.19,1.25-2.06,1.52-.17.06-.28.36-.4.56a87.82,87.82,0,0,1-11.06,15.14,86.94,86.94,0,0,1-21.71,17.31,85.78,85.78,0,0,1-25.92,9.58,87.28,87.28,0,0,1-11.17,1.45C103.49,175.25,101.53,175.29,99.56,175.31ZM95.8,131.69v-.12c1.76,0,3.53,0,5.3,0,3.93-.11,7.85-.25,11.78-.38,2.77-.09,5.54-.11,8.29-.32,4.12-.32,8.23-.74,12.33-1.21q6.75-.78,13.52-1.34a47.5,47.5,0,0,0,9.52-1.68,38.46,38.46,0,0,0,21.22-15.31,52.93,52.93,0,0,0,6.5-13.56,65.85,65.85,0,0,0,3.15-19.44,49.2,49.2,0,0,0-.52-7.47,59.07,59.07,0,0,0-1.6-8.93A38.43,38.43,0,0,0,172.9,42.3a19.84,19.84,0,0,0-8.19-4.42c-1.53-.36-3.06-.67-4.59-1a82.14,82.14,0,0,0-8.81-1.74c-2.67-.29-5.35-.63-8-1-3.92-.56-7.85-1-11.8-1.28-3.19-.22-6.38-.38-9.56-.6-2.66-.19-5.32-.29-8-.46-4-.25-7.92-.44-11.88-.36-1.8,0-3.6.12-5.4.14q-5,0-9.9,0c-2.5,0-5,.11-7.49.26-3,.19-6,.46-9,.71-2.56.22-5.11.42-7.66.69-4.46.48-8.91,1-13.35,1.76-3.44.56-6.91,1-10.35,1.6a27.68,27.68,0,0,0-14.64,7.47,31,31,0,0,0-7,9.41A60.16,60.16,0,0,0,12.4,74.88a63.28,63.28,0,0,0,.31,10.48A61.83,61.83,0,0,0,16,100a45,45,0,0,0,12.58,18.84,35.22,35.22,0,0,0,14.18,7.94,84.42,84.42,0,0,0,11.71,2c3.34.4,6.71.54,10.06.85,5,.47,9.94.93,14.92,1.34,2.76.23,5.51.41,8.27.53S93.1,131.63,95.8,131.69Z"/><path d="M150.17,78a31.44,31.44,0,0,1-1,7.38,22.62,22.62,0,0,1-2.87,6.56A11.32,11.32,0,0,1,141,96.29a12.55,12.55,0,0,1-11.35-.38,12,12,0,0,1-3.05-2.37c-3.55-3.75-5.11-8.3-5.56-13.35a23.9,23.9,0,0,1,1.58-11A16.85,16.85,0,0,1,129,60.9a11.82,11.82,0,0,1,14.23.79A18.13,18.13,0,0,1,148.8,70,25.89,25.89,0,0,1,150.17,78Z"/><path d="M49.18,77.72A22.43,22.43,0,0,1,53.1,65a13.87,13.87,0,0,1,6.57-5.31,11.51,11.51,0,0,1,11.64,2A16.93,16.93,0,0,1,77,69.91c2.37,7.12,1.93,14-1.93,20.57a13.8,13.8,0,0,1-7.19,6.2,11.41,11.41,0,0,1-10.42-1.13,16.12,16.12,0,0,1-6.18-7.4A24.77,24.77,0,0,1,49.18,77.72Z"/></g></g></svg>