<svg width="238" height="61" viewBox="0 0 238 61" fill="none" xmlns="http://www.w3.org/2000/svg">
<path fill-rule="evenodd" clip-rule="evenodd" d="M76.1409 47.4193L79.1111 40.5173C82.3194 42.9163 86.5938 44.1634 90.8112 44.1634C93.9242 44.1634 95.8949 42.9639 95.8949 41.1456C95.8473 36.0619 77.2452 40.0413 77.1024 27.294C77.0548 20.8204 82.8049 15.8319 90.954 15.8319C95.7997 15.8319 100.636 17.0314 104.092 19.7637L101.312 26.8085C98.1511 24.7902 94.2194 23.3527 90.478 23.3527C87.9362 23.3527 86.2606 24.5522 86.2606 26.0849C86.3082 31.0734 105.053 28.3412 105.244 40.5173C105.244 47.1337 99.6362 51.7889 91.5823 51.7889C85.6799 51.7794 80.263 50.3895 76.1409 47.4193V47.4193ZM190.2 38.023C188.715 40.6125 185.935 42.3832 182.717 42.3832C177.967 42.3832 174.14 38.5466 174.14 33.8057C174.14 29.0647 177.976 25.2281 182.717 25.2281C185.926 25.2281 188.715 26.9989 190.2 29.5883L198.397 25.0377C195.331 19.5733 189.429 15.8319 182.717 15.8319C172.788 15.8319 164.734 23.8858 164.734 33.8152C164.734 43.7445 172.788 51.7985 182.717 51.7985C189.476 51.7985 195.331 48.1047 198.397 42.5926L190.2 38.023ZM109.366 0.914062H119.628V51.113H109.366V0.914062ZM202.424 0.914062V51.113H212.686V36.0524L224.862 51.113H238L222.511 33.2249L236.848 16.5364H224.282L212.677 30.388V0.914062H202.424Z" fill="#C2CDE2"/>
<path d="M150.121 38.1181C148.636 40.5647 145.57 42.3831 142.115 42.3831C137.364 42.3831 133.537 38.5465 133.537 33.8055C133.537 29.0646 137.374 25.228 142.115 25.228C145.57 25.228 148.636 27.1415 150.121 29.6358V38.1181ZM150.121 16.5458V20.6203C148.445 17.7929 144.276 15.8223 139.906 15.8223C130.89 15.8223 123.798 23.781 123.798 33.7579C123.798 43.7349 130.89 51.7888 139.906 51.7888C144.266 51.7888 148.436 49.8277 150.121 46.9908V51.0653H160.383V16.5458H150.121Z" fill="#C2CDE2"/>
<path fill-rule="evenodd" clip-rule="evenodd" d="M12.7092 38.0705C12.7092 41.5739 9.88177 44.4013 6.37841 44.4013C2.87505 44.4013 0.0476074 41.5644 0.0476074 38.0705C0.0476074 34.5767 2.87505 31.7397 6.37841 31.7397H12.7092V38.0705ZM15.8698 38.0705C15.8698 34.5672 18.6973 31.7397 22.2006 31.7397C25.704 31.7397 28.5314 34.5672 28.5314 38.0705V53.8928C28.5314 57.3961 25.704 60.2236 22.2006 60.2236C18.6973 60.2236 15.8698 57.3961 15.8698 53.8928V38.0705Z" fill="#C2CDE2"/>
<path fill-rule="evenodd" clip-rule="evenodd" d="M22.2006 12.6616C18.6973 12.6616 15.8698 9.83416 15.8698 6.3308C15.8698 2.82744 18.6973 0 22.2006 0C25.704 0 28.5314 2.82744 28.5314 6.3308V12.6616H22.2006ZM22.2006 15.8698C25.704 15.8698 28.5314 18.6973 28.5314 22.2006C28.5314 25.704 25.704 28.5314 22.2006 28.5314H6.3308C2.82744 28.5314 0 25.6945 0 22.2006C0 18.7068 2.82744 15.8698 6.3308 15.8698H22.2006Z" fill="#C2CDE2"/>
<path fill-rule="evenodd" clip-rule="evenodd" d="M47.562 22.2006C47.562 18.6973 50.3894 15.8698 53.8928 15.8698C57.3961 15.8698 60.2236 18.6973 60.2236 22.2006C60.2236 25.704 57.3961 28.5314 53.8928 28.5314H47.562V22.2006ZM44.4013 22.2006C44.4013 25.704 41.5739 28.5314 38.0705 28.5314C34.5672 28.5314 31.7397 25.704 31.7397 22.2006V6.3308C31.7397 2.82744 34.5672 0 38.0705 0C41.5739 0 44.4013 2.82744 44.4013 6.3308V22.2006Z" fill="#C2CDE2"/>
<path fill-rule="evenodd" clip-rule="evenodd" d="M38.0705 47.562C41.5739 47.562 44.4013 50.3894 44.4013 53.8928C44.4013 57.3961 41.5739 60.2236 38.0705 60.2236C34.5672 60.2236 31.7397 57.3961 31.7397 53.8928V47.562H38.0705ZM38.0705 44.4013C34.5672 44.4013 31.7397 41.5739 31.7397 38.0705C31.7397 34.5672 34.5672 31.7397 38.0705 31.7397H53.9404C57.4437 31.7397 60.2712 34.5672 60.2712 38.0705C60.2712 41.5739 57.4437 44.4013 53.9404 44.4013H38.0705Z" fill="#C2CDE2"/>
</svg>
