<svg xmlns="http://www.w3.org/2000/svg" viewBox="0 0 200 200"><g id="Layer_2" data-name="Layer 2"><g id="Layer_1-2" data-name="Layer 1"><path d="M10,68.35A81.9,81.9,0,0,1,46.31,38.74C62,32,78.6,29.56,95.57,29.23c19.76-.38,39.16,1.64,57.55,9.36C167.94,44.8,180,54.25,188.63,67.67a4.87,4.87,0,0,0,.62.74c.05.06.21,0,.66,0V65.25q0-29.11,0-58.22a12.57,12.57,0,0,1,.19-3.37A4.54,4.54,0,0,1,194.87,0a4.63,4.63,0,0,1,4.9,3.91,16.44,16.44,0,0,1,.09,3.37c0,46-.24,92.07.14,138.1.12,14.41-6,25.16-16.94,33.84-12.21,9.73-26.76,14.37-42,17.2-20.8,3.88-41.8,4.33-62.81,2.59-19.32-1.6-38.21-5.13-55-15.35-10.61-6.44-18.71-15-22.24-27a24.72,24.72,0,0,1-1-7Q0,78.26,0,6.83a10.91,10.91,0,0,1,.15-3C1,1.26,2.67-.28,5.55,0A4.45,4.45,0,0,1,9.92,4.46c.07.9,0,1.8,0,2.71V68.35Zm90,94.91v0c6.71,0,13.41.14,20.11,0,8-.2,15.94.73,23.87-.56a36.65,36.65,0,0,0,30.86-39c-1.36-18.27-17.42-33.34-36.29-33.5-25.66-.22-51.32-.28-77,0A36.93,36.93,0,0,0,25,127.39c.23,19.58,17,35.77,37.15,35.86C74.75,163.3,87.35,163.26,99.94,163.26Z"/><path d="M64.64,117a17.71,17.71,0,0,1,15.78,9.64c1.55,2.91-3.32,3.55-5,5.52-.77,1-1.9,1.77-3,.07a17.33,17.33,0,0,0-1.9-2.39c-3.83-4.16-9-4.19-12.32.35-2.13,2.87-3.48,3.48-6.43.85-4.5-4-4.74-3.83-.47-8.17A18.56,18.56,0,0,1,64.64,117Z"/><path d="M133.22,117.05c8.53,0,13.52,4,17.54,9.65.52.72.46,1.17-.27,1.65s-1.1.81-1.65,1.22c-1.65,1.22-3.2,3.22-5,3.45s-2.5-2.56-3.92-3.82c-4.09-3.65-8.7-3.24-12.36,1.67-1.79,2.41-2.84,2.52-5.15.64-5.5-4.47-5.62-4.34-.47-9.27A17.48,17.48,0,0,1,133.22,117.05Z"/></g></g></svg>