<svg xmlns="http://www.w3.org/2000/svg" viewBox="0 0 200 200"><g id="Layer_2" data-name="Layer 2"><g id="Layer_1-2" data-name="Layer 1"><path d="M189.82,68.93V9.17A31.57,31.57,0,0,1,190,4.3c.43-2.77,2.2-4.41,5.11-4.29a4.55,4.55,0,0,1,4.59,4.17,37.05,37.05,0,0,1,.15,5.48c0,44.7-.37,89.41.2,134.1.21,17.11-7.39,29.15-21,38.35-14.38,9.71-30.88,13.81-47.95,15.82-29.56,3.48-58.95,3.13-87.72-5.41-12.91-3.83-24.63-9.84-33.55-20.11C3.37,165.05,0,156.73,0,146.8.19,101.09.08,55.37.09,9.65A36.88,36.88,0,0,1,.24,4.18,4.55,4.55,0,0,1,4.85,0c2.9-.09,4.66,1.57,5.09,4.33a32.87,32.87,0,0,1,.13,4.87v59.6C32.45,36.89,64.71,29.24,100,29.26S167.3,36.86,189.82,68.93ZM99.93,90.13c-12.26,0-24.51-.09-36.77,0-21.44.19-38,16-38.09,36.26-.14,20.61,16.39,36.73,38.1,36.85q36.77.21,73.54,0c21.45-.12,38-16,38.11-36.25.13-20.6-16.44-36.67-38.12-36.86C124.44,90,112.19,90.13,99.93,90.13Z"/><path d="M62.31,141.33a14.63,14.63,0,1,1,15.15-14.6A14.88,14.88,0,0,1,62.31,141.33Zm5.15-14.43c-.24-2.83-1.72-4.71-4.52-4.93-3.14-.25-5.14,1.52-5.3,4.59a4.43,4.43,0,0,0,4.4,4.88C65.2,131.71,66.91,129.81,67.46,126.9Z"/><path d="M137.62,141.33a14.62,14.62,0,1,1,14.74-15A14.89,14.89,0,0,1,137.62,141.33Zm-.36-19.49c-2.82.45-4.7,1.92-4.73,4.72,0,3.09,1.88,4.94,5,4.88a4.44,4.44,0,0,0,4.7-4.61C142.3,123.73,140.3,122.17,137.26,121.84Z"/></g></g></svg>