<svg xmlns="http://www.w3.org/2000/svg" viewBox="0 0 85.09 77.27"><g id="Layer_2" data-name="Layer 2"><g id="Layer_1-2" data-name="Layer 1"><path d="M85.06,47a8.76,8.76,0,0,0-6.47-8.28,18.72,18.72,0,0,0-5-.3,1,1,0,0,1-1-.54,24,24,0,0,0-3.15-4c-.14-.14-.41-.22-.32-.54H72.9a5.63,5.63,0,0,0,6-6q0-10.68,0-21.36c0-3.7-2.3-6-6-6H39.29a6.5,6.5,0,0,0-1.65.14A5.57,5.57,0,0,0,33.35,5.9q0,9.79,0,19.6c0,.63-.13.82-.8.85a25.16,25.16,0,0,0-14.65,5.51,23.66,23.66,0,0,0-5.48,6.07c-.47.75-1.12.5-1.69.45s-.26-.62-.26-.94c0-6.32,0-12.63,0-18.94a1,1,0,0,1,.78-1.17,6.87,6.87,0,0,0,4.52-6.77A7,7,0,0,0,9.31,3.9,7,7,0,0,0,2,9.29a6.92,6.92,0,0,0,4.46,8.09.85.85,0,0,1,.68,1q0,9.72,0,19.44c0,.55-.12.78-.69.95A8.63,8.63,0,0,0,.39,44.59,5.64,5.64,0,0,1,0,45.92V57.71c.28.24.22.61.31.91a8.67,8.67,0,0,0,6.3,6.22,15.25,15.25,0,0,0,4.62.29,1.38,1.38,0,0,1,1.33.71C17.57,73,24.44,77,33.24,77.17c6.14.15,12.3.1,18.44,0A24.86,24.86,0,0,0,71.15,67.7c.67-.81,1.09-2,1.92-2.43s2.12-.09,3.2-.13A8.81,8.81,0,0,0,85.08,56C85.08,53,85.11,50,85.06,47ZM5.16,10.85A3.64,3.64,0,1,1,8.8,14.49,3.66,3.66,0,0,1,5.16,10.85ZM7.4,61.62a5.43,5.43,0,0,1-4.07-5.24q0-4.6,0-9.22A5.42,5.42,0,0,1,8.7,41.75c.52,0,1,0,1.62,0a25.7,25.7,0,0,0,0,20.07A10.34,10.34,0,0,1,7.4,61.62ZM36.67,5.84a2.24,2.24,0,0,1,2.51-2.51q16.95,0,33.88,0A2.28,2.28,0,0,1,75.6,5.91v21.5A2.34,2.34,0,0,1,73,30.07c-5.53,0-11.07,0-16.6,0a2.54,2.54,0,0,0-2.5,1.37,14,14,0,0,1-10,6.92,17.12,17.12,0,0,0,1-6.36A1.68,1.68,0,0,0,43,30.08c-1.25,0-2.5,0-3.74,0a2.3,2.3,0,0,1-2.57-2.56Q36.65,16.68,36.67,5.84ZM73,56.06c-1.82,9.15-7.66,14.88-16.71,17.27a20.71,20.71,0,0,1-5.27.56H42.53v0c-3.21,0-6.42.07-9.63,0a22.12,22.12,0,0,1-2.16-44c.22,0,.45,0,.66-.06a2.37,2.37,0,0,1,3.1,1.33,4.88,4.88,0,0,0,4.44,2.3c.61,0,1.22,0,1.83,0s.75.06.68.71a15.9,15.9,0,0,1-1.6,5c-.19.4-.42.78-.57,1.19a1.63,1.63,0,0,0,1.86,2.24,44.9,44.9,0,0,0,8.59-2.72A16.19,16.19,0,0,0,56,34.11a1.45,1.45,0,0,1,1.41-.73c1.83,0,3.66,0,5.49,0a1.81,1.81,0,0,1,1.22.38C71.57,39.43,74.8,46.93,73,56.06Zm8.77,0a5.49,5.49,0,0,1-5.65,5.75H74.74a25.64,25.64,0,0,0,0-20c3.12-.31,5.29.71,6.41,3a5.72,5.72,0,0,1,.58,2.57C81.75,50.25,81.76,53.16,81.75,56.07Z"/><path d="M33,43.44a5.54,5.54,0,0,0-8.88,0,8.65,8.65,0,0,0,0,10.6,5.53,5.53,0,0,0,8.87,0,8.1,8.1,0,0,0,1.81-5.23A8.31,8.31,0,0,0,33,43.44ZM30.35,52a2.25,2.25,0,0,1-3.64.06,5.39,5.39,0,0,1,0-6.65,2.22,2.22,0,0,1,3.52,0,4.82,4.82,0,0,1,1.16,3.35A5,5,0,0,1,30.35,52Z"/><path d="M60.82,43.22A5.48,5.48,0,0,0,52.49,43a7.74,7.74,0,0,0-2.17,5.25A8.64,8.64,0,0,0,52.1,54a5.53,5.53,0,0,0,8.77.2A8.65,8.65,0,0,0,60.82,43.22Zm-2.52,8.9a2.22,2.22,0,0,1-3.47,0,5.41,5.41,0,0,1,0-6.71,2.23,2.23,0,0,1,3.53,0A5.38,5.38,0,0,1,58.3,52.12Z"/><path d="M70.48,16.69A1.59,1.59,0,0,1,69,18.33a7.63,7.63,0,0,1-.83,0H44.05a6.26,6.26,0,0,1-.75,0,1.68,1.68,0,0,1-1.56-1.55,1.7,1.7,0,0,1,1.39-1.72A4.57,4.57,0,0,1,44,15H68.54C69.77,15,70.48,15.65,70.48,16.69Z"/><path d="M70.48,9.17a1.65,1.65,0,0,1-1.85,1.67H55.76a1.72,1.72,0,0,1-1.89-1.67,1.7,1.7,0,0,1,1.88-1.65H68.62C69.78,7.53,70.48,8.15,70.48,9.17Z"/><path d="M58.36,24.25c0,1-.72,1.6-1.91,1.6H43.66c-1.16,0-1.9-.63-1.92-1.61a1.73,1.73,0,0,1,1.94-1.71q6.39,0,12.78,0A1.68,1.68,0,0,1,58.36,24.25Z"/><path d="M48.87,9.14a1.64,1.64,0,0,1-1.66,1.69c-.63,0-1.27,0-1.9,0s-1.22,0-1.82,0a1.71,1.71,0,0,1-1.75-1.72,1.68,1.68,0,0,1,1.76-1.6h3.65A1.61,1.61,0,0,1,48.87,9.14Z"/><path d="M70.48,24.32a1.57,1.57,0,0,1-1.55,1.52c-.66,0-1.32,0-2,0s-1.33,0-2,0a1.61,1.61,0,0,1-1.59-1.5,1.57,1.57,0,0,1,1.32-1.73,19.57,19.57,0,0,1,4.46,0A1.52,1.52,0,0,1,70.48,24.32Z"/><path d="M48.87,63.34c-.09.84-1.2,1.47-2.8,1.52-1.19,0-2.39,0-3.58,0s-2.4,0-3.59,0c-1.59,0-2.73-.65-2.87-1.5s.83-1.62,2.38-1.72a61.78,61.78,0,0,1,8.05,0C48,61.72,49,62.47,48.87,63.34Z"/></g></g></svg>