<svg xmlns="http://www.w3.org/2000/svg" viewBox="0 0 85.08 77.27"><g id="Layer_2" data-name="Layer 2"><g id="Layer_1-2" data-name="Layer 1"><path d="M85.06,47a8.77,8.77,0,0,0-6.48-8.28,18.69,18.69,0,0,0-5-.29,1,1,0,0,1-1-.55,25,25,0,0,0-3.16-4c-.13-.13-.41-.21-.31-.54H72.9a5.63,5.63,0,0,0,6-6V6c0-3.7-2.3-6-6-6H39.28a6.58,6.58,0,0,0-1.65.14A5.57,5.57,0,0,0,33.34,5.9c0,6.53,0,13.07,0,19.61,0,.62-.14.81-.8.85a25,25,0,0,0-14.65,5.51,23.5,23.5,0,0,0-5.49,6.06c-.47.75-1.12.51-1.68.46s-.27-.63-.27-1c0-6.31,0-12.63,0-18.94a1,1,0,0,1,.79-1.17,6.89,6.89,0,0,0,4.52-6.77A7,7,0,0,0,2,9.29a6.9,6.9,0,0,0,4.46,8.09.86.86,0,0,1,.68,1q0,9.72,0,19.44c0,.55-.12.79-.7.95A8.63,8.63,0,0,0,.39,44.6,5.56,5.56,0,0,1,0,45.92v11.8c.27.24.21.6.3.9a8.74,8.74,0,0,0,6.3,6.23,15.63,15.63,0,0,0,4.63.29,1.38,1.38,0,0,1,1.33.7C17.57,73,24.43,77,33.24,77.18c6.14.14,12.29.1,18.44,0A24.85,24.85,0,0,0,71.14,67.7c.67-.8,1.09-2,1.93-2.43s2.11-.09,3.19-.13A8.8,8.8,0,0,0,85.07,56C85.08,53,85.1,50,85.06,47ZM5.16,10.85a3.64,3.64,0,1,1,3.63,3.64A3.66,3.66,0,0,1,5.16,10.85Zm5.16,51a9.68,9.68,0,0,1-2.93-.19,5.43,5.43,0,0,1-4.06-5.24q0-4.6,0-9.21A5.43,5.43,0,0,1,8.7,41.75h1.62A25.72,25.72,0,0,0,10.32,61.81Zm26.35-56a2.24,2.24,0,0,1,2.51-2.51q16.93,0,33.88,0a2.28,2.28,0,0,1,2.53,2.58q0,10.76,0,21.51A2.35,2.35,0,0,1,73,30.08c-5.54,0-11.07,0-16.61,0a2.55,2.55,0,0,0-2.5,1.36,13.9,13.9,0,0,1-10,6.92,17.09,17.09,0,0,0,1-6.35A1.68,1.68,0,0,0,43,30.08c-1.24,0-2.49,0-3.73,0a2.29,2.29,0,0,1-2.57-2.56Q36.65,16.67,36.67,5.84ZM73,56.06c-1.83,9.15-7.67,14.88-16.71,17.27a19.85,19.85,0,0,1-5.27.56c-2.82,0-5.65,0-8.47,0v0c-3.21,0-6.43.07-9.64,0a22.11,22.11,0,0,1-2.15-44c.22,0,.44,0,.66-.07a2.39,2.39,0,0,1,3.1,1.33,4.85,4.85,0,0,0,4.44,2.3c.6,0,1.22,0,1.82,0s.76.06.68.72a15.52,15.52,0,0,1-1.6,5c-.19.4-.41.79-.56,1.2a1.62,1.62,0,0,0,1.85,2.23,45.13,45.13,0,0,0,8.59-2.71A16.18,16.18,0,0,0,56,34.11a1.46,1.46,0,0,1,1.41-.72c1.83,0,3.65,0,5.48,0a1.83,1.83,0,0,1,1.23.37C71.57,39.44,74.79,46.93,73,56.06Zm8.77,0a5.51,5.51,0,0,1-5.65,5.76c-.41,0-.83,0-1.36,0a26.35,26.35,0,0,0,2-10,25.94,25.94,0,0,0-2-10c3.12-.31,5.3.71,6.42,3a5.64,5.64,0,0,1,.57,2.56C81.74,50.26,81.75,53.16,81.75,56.07Z"/><path d="M34.75,48.83c0,.12,0,.25,0,.37H31.39c0-.14,0-.28,0-.43a4.82,4.82,0,0,0-1.15-3.36,2.23,2.23,0,0,0-3.53,0,5.17,5.17,0,0,0-1.13,3.8H24.14a5.19,5.19,0,0,0-1.83.32,8.46,8.46,0,0,1,1.76-6.08,5.52,5.52,0,0,1,8.87,0A8.22,8.22,0,0,1,34.75,48.83Z"/><path d="M62.79,49.2H59.45a5.12,5.12,0,0,0-1.12-3.8,2.23,2.23,0,0,0-3.53,0,4.83,4.83,0,0,0-1.16,3.27c0,.18,0,.35,0,.52H50.35c0-.29,0-.59,0-.91A7.7,7.7,0,0,1,52.49,43a5.49,5.49,0,0,1,8.33.18A8.43,8.43,0,0,1,62.79,49.2Z"/><path d="M48.44,64.78a8.48,8.48,0,0,1-11.76,0,1.68,1.68,0,0,1-.27-2.43,1.62,1.62,0,0,1,2.43-.07,5.3,5.3,0,0,0,7.4,0,1.62,1.62,0,0,1,2.43.09A1.69,1.69,0,0,1,48.44,64.78Z"/><path d="M70.48,16.69A1.61,1.61,0,0,1,69,18.33a7.61,7.61,0,0,1-.83,0H44c-.25,0-.5,0-.74,0a1.67,1.67,0,0,1-1.56-1.56,1.69,1.69,0,0,1,1.38-1.72A4.61,4.61,0,0,1,44,15H68.53C69.76,15,70.48,15.65,70.48,16.69Z"/><path d="M70.48,9.17a1.65,1.65,0,0,1-1.86,1.67H55.75a1.71,1.71,0,0,1-1.88-1.66,1.69,1.69,0,0,1,1.88-1.65H68.62C69.78,7.53,70.48,8.16,70.48,9.17Z"/><path d="M58.35,24.26c0,1-.72,1.59-1.91,1.59H43.66c-1.16,0-1.9-.63-1.92-1.61a1.72,1.72,0,0,1,1.93-1.7q6.39,0,12.78,0C57.66,22.54,58.38,23.23,58.35,24.26Z"/><path d="M48.87,9.14a1.65,1.65,0,0,1-1.66,1.7c-.63,0-1.27,0-1.91,0s-1.21,0-1.82,0a1.7,1.7,0,0,1-1.74-1.72A1.66,1.66,0,0,1,43.5,7.53c1.21,0,2.43,0,3.64,0A1.62,1.62,0,0,1,48.87,9.14Z"/><path d="M70.48,24.32a1.59,1.59,0,0,1-1.55,1.52c-.66,0-1.32,0-2,0s-1.32,0-2,0a1.61,1.61,0,0,1-1.59-1.49,1.56,1.56,0,0,1,1.32-1.73,19.48,19.48,0,0,1,4.45,0A1.54,1.54,0,0,1,70.48,24.32Z"/></g></g></svg>