<svg xmlns="http://www.w3.org/2000/svg" viewBox="0 0 124.37 123.64"><defs><style>.cls-1{fill:#e0f6f0;}.cls-2{fill:#70d3ba;}.cls-3{fill:#fff;}.cls-4{opacity:0.13;}</style></defs><g id="Layer_2" data-name="Layer 2"><g id="Layer_1-2" data-name="Layer 1"><path class="cls-1" d="M97.88,37c-11.06-.5-23-.44-34.12-.09a173.09,173.09,0,0,0,1.39,24c10.71-.39,21.42-.7,32.37-.8,0,4,0,8,.07,12.05,8.6-7.67,17.21-15.35,25.93-23.58Q111.21,36.48,98,25.36C98,29.25,97.88,33.2,97.88,37Z"/><path class="cls-2" d="M97.59,73a.84.84,0,0,1-.35-.07.86.86,0,0,1-.51-.77c-.07-3.76-.07-7.53-.07-11.21-9.31.1-19.07.35-31.48.8A.86.86,0,0,1,64.3,61a171.83,171.83,0,0,1-1.4-24.14.85.85,0,0,1,.83-.85c12.28-.38,23.47-.37,33.29,0,0-1.62,0-3.26,0-4.93,0-1.91.05-3.84.05-5.76a.86.86,0,0,1,.5-.77.84.84,0,0,1,.91.12c9,7.55,17.56,15.36,25.59,23.22a.87.87,0,0,1,0,1.23c-8.75,8.25-17.49,16.06-25.95,23.6A.83.83,0,0,1,97.59,73Zm-.07-13.77a.85.85,0,0,1,.85.86c0,3.32,0,6.75,0,10.17,7.8-7,15.83-14.16,23.86-21.71C114.89,41.32,107,34.16,98.83,27.21c0,1.31,0,2.63,0,3.94,0,2-.05,3.9-.05,5.8a.86.86,0,0,1-.27.62.85.85,0,0,1-.63.23c-9.77-.44-20.94-.48-33.22-.11A170.21,170.21,0,0,0,65.9,60c12.44-.45,22.22-.69,31.61-.78Z"/><path class="cls-3" d="M32,23.74C30.24,18,28.35,14,22.39,9.24,20.78,8,15.06,2.32,15.06,2.32s5-.19,7.22-.48C32.64.53,42.52,1.15,52.94,1.65c2.78.14,11.18-.79,11.18-.79s-6.62,8.37-8.6,11c-2.59,3.37-4.23,5.3-5.41,8.4s0,6.53,1.9,9,4.64,4.15,7.23,5.84C72.64,43.83,85.29,55.39,91,71s2.37,35.81-10.8,45c-6.64,4.61-14.81,5.94-22.73,6.5a143.73,143.73,0,0,1-28.8-.88c-9-1.18-18.72-3.82-23.86-11.73C1.92,105.41.92,99.88.86,94.51.7,80.49,6.5,66.9,15,56.15,22.83,46.18,35.62,36,32,23.74Z"/><path class="cls-2" d="M47.41,123.64a145.29,145.29,0,0,1-18.88-1.23c-7.8-1-18.82-3.4-24.47-12.11-2.62-4-4-9.35-4.06-15.78-.15-13.2,4.93-27,14.3-38.9,1.63-2.06,3.5-4.18,5.31-6.22,7-7.95,14.3-16.17,11.53-25.42-1.75-5.83-3.66-9.61-9.28-14.07-1.63-1.29-7.16-6.74-7.4-7a.87.87,0,0,1-.2-.92A.87.87,0,0,1,15,1.47c.05,0,4.94-.2,7.15-.48C31.89-.24,41.09.21,50.83.69L53,.8C55.67.92,63.94,0,64,0a.86.86,0,0,1,.85.43.89.89,0,0,1-.08,1c-.07.08-6.63,8.4-8.59,11l-.83,1.08c-2.08,2.69-3.46,4.47-4.46,7.11C50,23,50.69,26.16,52.69,28.7A26.07,26.07,0,0,0,59.18,34l.53.34C76.35,45.23,86.84,57.12,91.78,70.7a46.4,46.4,0,0,1,1.7,25.37c-1.92,8.86-6.47,16.17-12.82,20.57-7.09,4.93-15.69,6.13-23.16,6.65C54.15,123.53,50.78,123.64,47.41,123.64ZM32.78,23.49c3,10.16-4.55,18.74-11.89,27-1.87,2.12-3.65,4.13-5.25,6.16C6.52,68.27,1.57,81.7,1.72,94.5c.07,6.1,1.34,11.1,3.78,14.86,5.27,8.12,15.79,10.36,23.26,11.35a142.65,142.65,0,0,0,28.62.87c7.24-.51,15.55-1.66,22.3-6.34,13.24-9.19,15.73-29.56,10.49-43.95-4.82-13.22-15.08-24.83-31.4-35.5l-.53-.35a27.07,27.07,0,0,1-6.9-5.68c-2.37-3-3.16-6.87-2-9.84s2.52-4.74,4.7-7.55l.83-1.07c1.43-1.88,5.32-6.81,7.34-9.38a91.29,91.29,0,0,1-9.28.59L50.74,2.4c-9.66-.47-18.78-.92-28.35.3-1.37.17-3.66.31-5.32.39,1.8,1.75,4.79,4.63,5.86,5.47C28.9,13.31,30.94,17.32,32.78,23.49Z"/><path class="cls-2" d="M38.11,25.8a30.38,30.38,0,0,1-5.79-.56.86.86,0,0,1,.33-1.69A28.73,28.73,0,0,0,48.87,22a.87.87,0,0,1,1.12.48.86.86,0,0,1-.48,1.11A30.39,30.39,0,0,1,38.11,25.8Z"/><path class="cls-2" d="M35.27,33.65q-1.65,0-3.3-.15a.86.86,0,0,1,.15-1.71,36,36,0,0,0,19.21-3.63.85.85,0,1,1,.76,1.53A37.73,37.73,0,0,1,35.27,33.65Z"/><path class="cls-2" d="M49.25,101.23a21.24,21.24,0,0,1-14.72-5.86.85.85,0,0,1,0-1.21.87.87,0,0,1,1.22,0,19.8,19.8,0,0,0,20.11,4.2c3.48-1.31,5.88-3.64,6.43-6.24.59-2.8-1-6-3.88-7.88C56.06,82.72,53,82,48.89,82l-1.33,0a20.69,20.69,0,0,1-5.8-.43c-2.19-.59-4.9-2.32-5.34-5.24-.57-3.74,2.94-6.67,6.12-8a27.27,27.27,0,0,1,17-1.5.86.86,0,1,1-.4,1.67,25.53,25.53,0,0,0-15.88,1.41c-2.62,1.13-5.53,3.43-5.1,6.2.29,2,2.27,3.35,4.09,3.84a18.9,18.9,0,0,0,5.31.37l1.36,0c4.39,0,7.81.77,10.44,2.45C62.78,85,64.68,89,64,92.46c-1,4.57-5.57,6.75-7.5,7.48A20.45,20.45,0,0,1,49.25,101.23Z"/><path class="cls-2" d="M49.83,106.18h-.06a.85.85,0,0,1-.8-.91,117.56,117.56,0,0,0-5.09-43.18A.87.87,0,0,1,44.44,61a.86.86,0,0,1,1.07.57,119.22,119.22,0,0,1,5.17,43.81A.86.86,0,0,1,49.83,106.18Z"/><path class="cls-2" d="M15.29,41.64A7.18,7.18,0,0,1,10.6,40a.86.86,0,0,1,1.09-1.32c2.23,1.86,5.73,1.37,8-.08,2.56-1.6,4.31-4.19,6-6.93l.47-.76a61.5,61.5,0,0,1,4.28-6.26A9.67,9.67,0,0,0,24,26.74c-.45.36-.88.77-1.33,1.19a16.64,16.64,0,0,1-1.77,1.55,9.75,9.75,0,0,1-9,1.21.86.86,0,0,1-.49-1.11.87.87,0,0,1,1.11-.5,7.94,7.94,0,0,0,7.38-1,17.28,17.28,0,0,0,1.61-1.41c.46-.43.93-.88,1.44-1.29a11.44,11.44,0,0,1,9.44-2.21.83.83,0,0,1,.63.57.86.86,0,0,1-.17.84,50.77,50.77,0,0,0-5.13,7.24l-.48.76c-1.75,2.8-3.7,5.68-6.57,7.48A10.35,10.35,0,0,1,15.29,41.64Z"/><path class="cls-2" d="M59.39,122.09a.29.29,0,0,1-.3-.29.28.28,0,0,1,.28-.28h0a17.94,17.94,0,0,0,12.16-5.46c3.56-3.48,5.91-7.94,7.56-11.45a.3.3,0,0,1,.38-.14.28.28,0,0,1,.14.38c-1.67,3.55-4,8.08-7.68,11.62A18.53,18.53,0,0,1,59.39,122.09Z"/><path class="cls-2" d="M54.59,122.47a.29.29,0,0,1-.25-.15.3.3,0,0,1,.11-.39,22.05,22.05,0,0,0,8.24-8.06.28.28,0,0,1,.49.29,22.66,22.66,0,0,1-8.45,8.27A.23.23,0,0,1,54.59,122.47Z"/><path class="cls-2" d="M37.13,122.78h-.05a11.31,11.31,0,0,1-8.36-6.23.27.27,0,0,1,.14-.38.28.28,0,0,1,.38.13,10.71,10.71,0,0,0,7.93,5.92.29.29,0,0,1,0,.57Z"/><path class="cls-2" d="M26.08,121.37a.27.27,0,0,1-.17-.06C21,117.7,16.47,114,15.34,108.61a.28.28,0,0,1,.22-.34.3.3,0,0,1,.34.22c1.09,5.21,5.52,8.82,10.35,12.36a.3.3,0,0,1,.06.4A.28.28,0,0,1,26.08,121.37Z"/><path class="cls-2" d="M37.38,24.47a.29.29,0,0,1-.28-.22,51.54,51.54,0,0,0-3.74-10.46.29.29,0,0,1,.13-.39.28.28,0,0,1,.38.14,52.13,52.13,0,0,1,3.79,10.58.29.29,0,0,1-.22.34Z"/><path class="cls-2" d="M41.55,24.67h0a.3.3,0,0,1-.26-.31,23,23,0,0,1,3.27-9.79.28.28,0,1,1,.48.3,22.49,22.49,0,0,0-3.18,9.54A.28.28,0,0,1,41.55,24.67Z"/><path class="cls-2" d="M45.67,23.24h-.09a.29.29,0,0,1-.18-.36l1.26-4.27c.06-.18.14-.27.27-.3a.3.3,0,0,1,.28.09c.13.14.22.25-1.27,4.66A.29.29,0,0,1,45.67,23.24Z"/><g class="cls-4"><path d="M88.12,58a11.09,11.09,0,0,0-1.66-3c.09.09-1-1.31-1.22-1.6a30.12,30.12,0,0,0-3-3.34c-2.21-2.44-4.57-4.73-7-6.94s-5.09-3.83-7.29-5.82L67.63,37a1.45,1.45,0,0,0-.34-.57,1.48,1.48,0,0,0-2.5,1,2.57,2.57,0,0,0,.82,1.72,15.51,15.51,0,0,0,2.24,2c1.3,1.08,2.63,2.15,3.9,3.27,3.21,2.94,6.15,6.14,9.13,9.31a52.57,52.57,0,0,1,3.44,4.63l-.27-.35a7.33,7.33,0,0,0,1.13,1.42l.06,0a2.5,2.5,0,0,0,.39.34A1.65,1.65,0,0,0,88.12,58Z"/></g><g class="cls-4"><path class="cls-2" d="M49.2,23.13l.15-.13c1.54-1.74-.32-3.76-2.34-2.82a22.83,22.83,0,0,1-9.93.9A7.32,7.32,0,0,1,35,20.42a5.34,5.34,0,0,0-1.6-.67,2,2,0,0,0-1.31,3.78,11.08,11.08,0,0,0,1.73.85,1.92,1.92,0,0,0,.82,3.18c3.8.92,7.83.24,11.53-.8A11.75,11.75,0,0,0,48,26h0l0,0L48,26l0,0,.17-.07h0a1.9,1.9,0,0,0,.39-.23l0,0a1.68,1.68,0,0,0,.68-.55,1.54,1.54,0,0,0,0-1.93A.39.39,0,0,0,49.2,23.13Z"/></g><g class="cls-4"><path class="cls-2" d="M51.67,31.22a1.71,1.71,0,0,0,.14-1.91,1.76,1.76,0,0,0-1.5-.83h0a1.86,1.86,0,0,0-.33,0c-.8.14-.86.5-2.28,1.19a30.37,30.37,0,0,1-6.33,1.8,14.07,14.07,0,0,1-4.85.4,3,3,0,0,0-1.39-.15,2.13,2.13,0,0,0-.28,4.15c3.93.89,7.92-.48,11.61-1.77a17.71,17.71,0,0,0,4.92-2.55.64.64,0,0,0,.1-.13l.12-.11Z"/></g><g class="cls-4"><path class="cls-2" d="M93.62,82.81a15.54,15.54,0,0,0-.28-3.74,1.16,1.16,0,0,0-2.1.27,42.29,42.29,0,0,1-1.37,7.47,62,62,0,0,1-6,15.55,33.47,33.47,0,0,1-3.83,6.21A30.74,30.74,0,0,1,68.67,115c-4,1.3-5.44,1.17-9.82,1.68-5.92.71-11.88.27-17.81-.05-3.17-.14-5.43-.72-9.61-1.27A108.91,108.91,0,0,1,12.8,111.7a10.7,10.7,0,0,1-2.61-1.17,1.25,1.25,0,0,0-.55-.19c-.39-.25-.78-.51-1.18-.8-.77-.48-2.36-2.08-3.73-3.09a1.1,1.1,0,0,0-1.49,1.3c.35.81,1.24,1.26,1.84,1.87l.27.23a.57.57,0,0,0,0,.22,9.59,9.59,0,0,0,2.22,2.37,1.62,1.62,0,0,0,.81,1.11l.84.47a16.05,16.05,0,0,0,2.26,2,1,1,0,0,0,.93,0l.49.32a24.9,24.9,0,0,0,5.55,2.92,77.23,77.23,0,0,0,7.92,3,38.54,38.54,0,0,0,5.34,1,64.76,64.76,0,0,0,9.55.23c3.39,0,6.77,0,10.15-.27A147.46,147.46,0,0,0,68,121.47a33,33,0,0,0,15.1-7.72,18.84,18.84,0,0,0,4.26-5.89c.32-.85,1.06-1.66,1-2.59a30.28,30.28,0,0,0,1.86-3.52,24.8,24.8,0,0,0,1.42-3.37,4.85,4.85,0,0,0,.69-2.27c.16-.59.3-1.18.43-1.78A5.65,5.65,0,0,0,93,91.72c.1-.73.2-1.45.27-2.18C93.51,87.3,93.59,85.06,93.62,82.81Zm-64.5,36.67h-.05l2,.25.75.11C30.85,119.75,29.93,119.63,29.12,119.48Z"/></g></g></g></svg>