<svg height="100%" stroke-miterlimit="10" version="1.1" viewBox="0 0 3370.82 2384.24" width="100%" xml:space="preserve" xmlns="http://www.w3.org/2000/svg" xmlns:vectornator="http://vectornator.io" xmlns:xlink="http://www.w3.org/1999/xlink">
<defs/>
<g id="Layer-1" vectornator:layerName="Layer 1">
<path d="M1343.22 395.793C1376.5 394.979 1407.4 403.077 1435.92 420.087C1466.26 438.753 1488.72 464.343 1503.31 496.856C1514.83 523.448 1519.33 551.193 1516.83 580.09C1513.75 612.371 1502.51 641.383 1483.11 667.126C1464.01 692.028 1439.88 710.351 1410.74 722.095C1392.41 729.316 1373.4 733.232 1353.7 733.84C1308.8 733.897 1263.9 733.897 1219 733.84C1205.71 732.722 1195.1 726.849 1187.19 716.222C1182.56 709.642 1179.96 702.318 1179.42 694.251C1179.36 649.353 1179.36 604.454 1179.42 559.556C1180.77 523.697 1192.12 491.475 1213.47 462.887C1230.08 441.115 1250.69 424.257 1275.28 412.313C1296.78 402.08 1319.42 396.574 1343.22 395.793ZM1369.42 482.914C1369.59 483.034 1369.78 483.09 1370.01 483.083C1370.21 483.19 1370.44 483.246 1370.68 483.252C1370.85 483.372 1371.05 483.428 1371.28 483.421C1379.15 485.683 1386.56 488.978 1393.5 493.307C1393.54 493.427 1393.62 493.482 1393.75 493.476C1396.49 495.267 1399.14 497.182 1401.7 499.223C1401.74 499.342 1401.82 499.397 1401.95 499.392C1415.45 510.631 1424.7 524.715 1429.71 541.642C1431.81 549.072 1432.88 556.65 1432.92 564.373C1432.98 587.132 1432.98 609.891 1432.92 632.65C1432.83 636.669 1431.52 640.218 1428.99 643.297C1428.87 643.337 1428.82 643.421 1428.82 643.551C1428.57 643.748 1428.34 643.973 1428.15 644.227C1427.84 644.48 1427.55 644.762 1427.3 645.072C1424.14 647.807 1420.45 649.229 1416.23 649.339C1393.47 649.396 1370.71 649.396 1347.95 649.339C1326.12 648.958 1307.17 641.494 1291.08 626.946C1288.21 624.228 1285.51 621.369 1282.97 618.369C1282.98 618.24 1282.92 618.155 1282.8 618.116C1280.76 615.555 1278.85 612.907 1277.06 610.173C1277.06 610.043 1277.01 609.959 1276.89 609.919C1272.56 602.979 1269.26 595.571 1267 587.695C1267.01 587.471 1266.95 587.274 1266.83 587.104C1262 568.491 1263.16 550.266 1270.34 532.432C1277.77 514.973 1289.64 501.41 1305.96 491.744C1322.29 482.437 1339.81 478.832 1358.52 480.928C1362.19 481.389 1365.82 482.051 1369.42 482.914Z" fill="#89d3bc" fill-rule="evenodd" opacity="1" stroke="none"/>
<path d="M1343.39 395.878C1375.05 395.152 1404.65 402.546 1432.2 418.059C1462.07 435.424 1484.73 459.549 1500.18 490.434C1513.5 517.909 1519.08 546.893 1516.91 577.386C1514.19 611.38 1502.47 641.801 1481.76 668.647C1461.05 694.926 1434.87 713.615 1403.22 724.714C1387.66 730.012 1371.66 732.998 1355.22 733.671C1309.84 733.811 1264.47 733.838 1219.09 733.756C1206.91 732.786 1196.9 727.674 1189.05 718.419C1183.24 711.245 1180.06 703.019 1179.5 693.744C1179.44 649.128 1179.44 604.511 1179.5 559.894C1180.93 521.891 1193.43 488.118 1217.02 458.577C1237.96 432.97 1264.14 414.873 1295.56 404.285C1311.11 399.211 1327.05 396.408 1343.39 395.878ZM1369.42 482.914C1369.59 483.034 1369.78 483.09 1370.01 483.083C1370.21 483.19 1370.44 483.246 1370.68 483.252C1370.85 483.372 1371.05 483.428 1371.28 483.421C1379.15 485.683 1386.56 488.978 1393.5 493.307C1393.54 493.427 1393.62 493.482 1393.75 493.476C1396.49 495.267 1399.14 497.182 1401.7 499.223C1401.74 499.342 1401.82 499.397 1401.95 499.392C1415.45 510.631 1424.7 524.715 1429.71 541.642C1431.81 549.072 1432.88 556.65 1432.92 564.373C1432.98 587.132 1432.98 609.891 1432.92 632.65C1432.83 636.669 1431.52 640.218 1428.99 643.297C1428.87 643.337 1428.82 643.421 1428.82 643.551C1428.57 643.748 1428.34 643.973 1428.15 644.227C1427.84 644.48 1427.55 644.762 1427.3 645.072C1424.14 647.807 1420.45 649.229 1416.23 649.339C1393.47 649.396 1370.71 649.396 1347.95 649.339C1326.12 648.958 1307.17 641.494 1291.08 626.946C1288.21 624.228 1285.51 621.369 1282.97 618.369C1282.98 618.24 1282.92 618.155 1282.8 618.116C1280.76 615.555 1278.85 612.907 1277.06 610.173C1277.06 610.043 1277.01 609.959 1276.89 609.919C1272.56 602.979 1269.26 595.571 1267 587.695C1267.01 587.471 1266.95 587.274 1266.83 587.104C1262 568.491 1263.16 550.266 1270.34 532.432C1277.77 514.973 1289.64 501.41 1305.96 491.744C1322.29 482.437 1339.81 478.832 1358.52 480.928C1362.19 481.389 1365.82 482.051 1369.42 482.914Z" fill="#65fbf0" fill-rule="evenodd" opacity="1" stroke="none"/>
<path d="M1742.12 653.882C1742.79 653.859 1743.37 654.027 1743.88 654.382C1743.21 654.405 1742.63 654.237 1742.12 653.882Z" fill="#3e9690" fill-rule="evenodd" opacity="1" stroke="none"/>
<path d="M1745.88 654.883C1746.54 654.86 1747.13 655.028 1747.63 655.383C1746.97 655.406 1746.38 655.238 1745.88 654.883Z" fill="#419f98" fill-rule="evenodd" opacity="1" stroke="none"/>
<path d="M1813.44 684.659C1813.82 684.642 1814.07 684.807 1814.19 685.159C1813.81 685.177 1813.55 685.012 1813.44 684.659Z" fill="#337671" fill-rule="evenodd" opacity="1" stroke="none"/>
<path d="M1837.71 702.175C1838.09 702.157 1838.34 702.322 1838.46 702.675C1838.08 702.693 1837.83 702.527 1837.71 702.175Z" fill="#347873" fill-rule="evenodd" opacity="1" stroke="none"/>
<path d="M1266.83 587.104C1266.95 587.274 1267.01 587.471 1267 587.695C1266.88 587.525 1266.83 587.328 1266.83 587.104Z" fill="#419e97" fill-rule="evenodd" opacity="1" stroke="none"/>
<path d="M1276.89 609.919C1277.01 609.959 1277.06 610.043 1277.06 610.173C1276.94 610.133 1276.88 610.048 1276.89 609.919Z" fill="#337671" fill-rule="evenodd" opacity="1" stroke="none"/>
<path d="M1282.8 618.116C1282.92 618.155 1282.98 618.24 1282.97 618.369C1282.85 618.33 1282.8 618.245 1282.8 618.116Z" fill="#347872" fill-rule="evenodd" opacity="1" stroke="none"/>
<path d="M1428.99 643.297C1429 643.426 1428.94 643.511 1428.82 643.551C1428.82 643.421 1428.87 643.337 1428.99 643.297Z" fill="#337772" fill-rule="evenodd" opacity="1" stroke="none"/>
<path d="M1428.15 644.227C1427.95 644.593 1427.67 644.875 1427.3 645.072C1427.55 644.762 1427.84 644.48 1428.15 644.227Z" fill="#44a8a1" fill-rule="evenodd" opacity="1" stroke="none"/>
</g>
</svg>
