<svg xmlns="http://www.w3.org/2000/svg" width="4811" height="4899" style="shape-rendering:geometricPrecision;text-rendering:geometricPrecision;image-rendering:optimizeQuality;fill-rule:evenodd;clip-rule:evenodd"><path style="opacity:.584" fill="#89d3bc" d="M2392.5 453.5c393.81-9.636 759.48 86.197 1097 287.5 359.05 220.896 624.89 523.73 797.5 908.5 136.28 314.69 189.61 643.03 160 985-36.46 382.02-169.46 725.35-399 1030-226.13 294.69-511.63 511.52-856.5 650.5-216.86 85.46-441.86 131.8-675 139-531.33.67-1062.67.67-1594 0-157.336-13.23-282.836-82.73-376.5-208.5-54.85-77.87-85.517-164.54-92-260-.667-531.33-.667-1062.67 0-1594 15.987-424.36 150.32-805.69 403-1144 196.59-257.649 440.42-457.149 731.5-598.5 254.38-121.095 522.38-186.261 804-195.5Zm310 1031c2.01 1.42 4.35 2.09 7 2 2.41 1.27 5.07 1.93 8 2 2.01 1.42 4.35 2.09 7 2 93.2 26.77 180.87 65.77 263 117 .47 1.41 1.47 2.07 3 2 32.36 21.19 63.69 43.85 94 68 .47 1.41 1.47 2.07 3 2 159.74 133.01 269.24 299.68 328.5 500 24.87 87.93 37.53 177.6 38 269 .67 269.33.67 538.67 0 808-1.01 47.56-16.51 89.56-46.5 126-1.41.47-2.07 1.47-2 3-3 2.33-5.67 5-8 8-3.67 3-7 6.33-10 10-37.45 32.37-81.12 49.2-131 50.5-269.33.67-538.67.67-808 0-258.33-4.51-482.66-92.84-673-265-34.01-32.17-66.01-66-96-101.5.07-1.53-.59-2.53-2-3a1247.037 1247.037 0 0 1-68-94c.07-1.53-.59-2.53-2-3-51.23-82.13-90.23-169.8-117-263 .09-2.65-.58-4.99-2-7-57.24-220.27-43.41-435.94 41.5-647 87.95-206.61 228.45-367.11 421.5-481.5 193.27-110.14 400.6-152.81 622-128 43.45 5.46 86.45 13.29 129 23.5Z"/><path style="opacity:1" fill="#65fbf0" d="M2394.5 454.5c374.65-8.588 724.98 78.912 1051 262.5 353.51 205.504 621.68 491 804.5 856.5 157.59 325.14 223.59 668.14 198 1029-32.26 402.29-170.93 762.29-416 1080-245.09 310.98-554.93 532.15-929.5 663.5-184.14 62.7-373.47 98.03-568 106-537 1.65-1074 1.98-1611 1-144.107-11.47-262.607-71.97-355.5-181.5-68.749-84.9-106.415-182.24-113-292-.667-528-.667-1056 0-1584 16.866-449.74 164.866-849.41 444-1199 247.76-303.042 557.59-517.208 929.5-642.5 184-60.055 372.67-93.222 566-99.5Zm308 1030c2.01 1.42 4.35 2.09 7 2 2.41 1.27 5.07 1.93 8 2 2.01 1.42 4.35 2.09 7 2 93.2 26.77 180.87 65.77 263 117 .47 1.41 1.47 2.07 3 2 32.36 21.19 63.69 43.85 94 68 .47 1.41 1.47 2.07 3 2 159.74 133.01 269.24 299.68 328.5 500 24.87 87.93 37.53 177.6 38 269 .67 269.33.67 538.67 0 808-1.01 47.56-16.51 89.56-46.5 126-1.41.47-2.07 1.47-2 3-3 2.33-5.67 5-8 8-3.67 3-7 6.33-10 10-37.45 32.37-81.12 49.2-131 50.5-269.33.67-538.67.67-808 0-258.33-4.51-482.66-92.84-673-265-34.01-32.17-66.01-66-96-101.5.07-1.53-.59-2.53-2-3a1247.037 1247.037 0 0 1-68-94c.07-1.53-.59-2.53-2-3-51.23-82.13-90.23-169.8-117-263 .09-2.65-.58-4.99-2-7-57.24-220.27-43.41-435.94 41.5-647 87.95-206.61 228.45-367.11 421.5-481.5 193.27-110.14 400.6-152.81 622-128 43.45 5.46 86.45 13.29 129 23.5Z"/><path style="opacity:.765" fill="#3e9690" d="M2702.5 1484.5c2.65-.09 4.99.58 7 2-2.65.09-4.99-.58-7-2Z"/><path style="opacity:.937" fill="#419f98" d="M2717.5 1488.5c2.65-.09 4.99.58 7 2-2.65.09-4.99-.58-7-2Z"/><path style="opacity:.514" fill="#337671" d="M2987.5 1607.5c1.53-.07 2.53.59 3 2-1.53.07-2.53-.59-3-2Z"/><path style="opacity:.78" fill="#347873" d="M3084.5 1677.5c1.53-.07 2.53.59 3 2-1.53.07-2.53-.59-3-2Z"/><path style="opacity:.937" fill="#419e97" d="M1488.5 2717.5c1.42 2.01 2.09 4.35 2 7-1.42-2.01-2.09-4.35-2-7Z"/><path style="opacity:.514" fill="#337671" d="M1607.5 2987.5c1.41.47 2.07 1.47 2 3-1.41-.47-2.07-1.47-2-3Z"/><path style="opacity:.78" fill="#347872" d="M1677.5 3084.5c1.41.47 2.07 1.47 2 3-1.41-.47-2.07-1.47-2-3Z"/><path style="opacity:.78" fill="#337772" d="M3407.5 3382.5c.07 1.53-.59 2.53-2 3-.07-1.53.59-2.53 2-3Z"/><path style="opacity:.929" fill="#44a8a1" d="M3397.5 3393.5c-2.33 4.33-5.67 7.67-10 10 3-3.67 6.33-7 10-10Z"/></svg>