<svg xmlns="http://www.w3.org/2000/svg" viewBox="0 0 98.64 132.62"><defs><style>.cls-1{fill:#fff;}.cls-2{fill:#70d3ba}.cls-3{fill:#e0f6f0;}.cls-4{opacity:0.13;}</style></defs><g id="Layer_2" data-name="Layer 2"><g id="Layer_1-2" data-name="Layer 1"><path class="cls-1" d="M96.71,16.83Q94.94,74.3,97.79,131.77c-32.35-1.05-64.41-1.37-96.44-.52C.67,92.47.89,54.28.88,15.66,32,15.66,63.17,15.65,96.71,16.83Z"/><path class="cls-2" d="M97.78,132.62h0c-35.08-1.13-66.61-1.3-96.39-.51a.81.81,0,0,1-.61-.24.86.86,0,0,1-.27-.6C0,100.42,0,69.39,0,39.37Q0,27.54,0,15.66a.85.85,0,0,1,.85-.85c30.64,0,62.31,0,95.86,1.16a.87.87,0,0,1,.83.89C96.39,55,96.75,93.63,98.64,131.72a.91.91,0,0,1-.24.65A.89.89,0,0,1,97.78,132.62Zm-58.66-2.71c18.3,0,37.43.32,57.76,1-1.84-37.56-2.19-75.64-1-113.22-32.9-1.14-64-1.14-94.09-1.14q0,11.44,0,22.85c0,29.73-.06,60.46.46,91C14.18,130.06,26.45,129.91,39.12,129.91Z"/><path class="cls-1" d="M87.48,22.74c-1.93,33.53-.86,66.52,1.29,100-26.25-.44-52.41-.89-78.49.11C10,89.08,9.25,55.94,8.67,22.64,36,22.91,62.3,23,87.48,22.74Z"/><path class="cls-2" d="M10.28,123.75a.87.87,0,0,1-.59-.24.84.84,0,0,1-.27-.61C9.21,98,8.74,73,8.3,48.91Q8,35.78,7.82,22.65A.82.82,0,0,1,8.07,22a.84.84,0,0,1,.61-.25c29.54.29,55.31.32,78.8.1a.86.86,0,0,1,.63.27.87.87,0,0,1,.23.64c-1.68,29.08-1.28,59.91,1.29,99.94a.87.87,0,0,1-.23.65.92.92,0,0,1-.64.26H88.4c-25.64-.44-52.15-.89-78.09.11ZM9.55,23.5q.22,12.7.46,25.38c.44,23.85.9,48.49,1.12,73.12,25.51-.94,51.54-.52,76.73-.09C85.36,82.67,85,52.27,86.58,23.6,63.56,23.82,38.34,23.78,9.55,23.5Z"/><path class="cls-3" d="M73.29,14.12c-3.2-.15-12.81-.25-16.06-.32-1.49-1.41.16-8.43-2.45-11A7.83,7.83,0,0,0,49.26.86c-1.8,0-4.08.19-5.63,1.68C40.87,5.2,41.56,13.22,41,13.78c-3.46,0-13.61.11-17.08.2,0,10.57,4.23,12.38,14.38,12.69,15.79.5,25.52.44,29.53-1.24C72.88,23.31,74.17,19.11,73.29,14.12Zm-28.08-.39c0-2.24-.56-7.27,4.17-7.27,3.31,0,2.58,6.75,2.88,7.28Q48.75,13.71,45.21,13.73Z"/><path class="cls-2" d="M52.07,27.8c-4,0-8.56-.11-13.82-.27C27.74,27.2,23,25.17,23,14a.87.87,0,0,1,.84-.86c2.32-.06,7.65-.11,11.93-.15l4.51,0c0-.41.09-1,.12-1.55.19-3,.47-7.4,2.6-9.46C44.93.1,47.74,0,49.25,0a8.65,8.65,0,0,1,6.13,2.14c1.73,1.73,1.84,4.79,1.94,7.49A12.9,12.9,0,0,0,57.68,13l3.4.06c4.19.06,9.92.14,12.25.26a.86.86,0,0,1,.81.7c1,5.94-1,10.17-6,12.25C65.36,27.38,60,27.8,52.07,27.8Zm-27.3-13c.19,9,3.67,10.69,13.54,11,15.53.48,25.28.44,29.17-1.18,4.07-1.71,5.74-4.88,5.07-9.69-2.62-.1-7.69-.17-11.49-.23l-3.85-.06a.86.86,0,0,1-.57-.23c-.9-.85-1-2.57-1-4.74s-.18-5.08-1.43-6.33a6.86,6.86,0,0,0-4.89-1.64c-1.76,0-3.75.18-5.05,1.43-1.65,1.6-1.92,5.81-2.08,8.33C42,13.31,42,14,41.57,14.39a.78.78,0,0,1-.58.24l-5.17.06C32,14.72,27.37,14.77,24.77,14.82Zm27.49-.22h0c-2.3,0-4.67,0-7,0a.82.82,0,0,1-.61-.25.87.87,0,0,1-.26-.61V13.1c0-1.81-.09-4.54,1.53-6.2a4.71,4.71,0,0,1,3.5-1.3c3.39,0,3.55,4.69,3.64,6.94a8.44,8.44,0,0,0,0,.89.84.84,0,0,1-.07.74A.86.86,0,0,1,52.26,14.6Zm-6.19-.87h0ZM53,13.31Zm-4.45-.44h2.75a2.35,2.35,0,0,0,0-.26c-.06-1.72-.19-5.29-1.92-5.29a3,3,0,0,0-2.28.78c-1.07,1.1-1.07,3.26-1,4.77Z"/><path class="cls-2" d="M24.18,51.44h0A.88.88,0,0,1,23.4,51a31,31,0,0,0-3.51-5.61.86.86,0,0,1,.14-1.2.87.87,0,0,1,1.21.14,33.1,33.1,0,0,1,3,4.46l3.86-7.18a.86.86,0,0,1,1.16-.35.86.86,0,0,1,.35,1.16L24.93,51A.85.85,0,0,1,24.18,51.44Z"/><path class="cls-2" d="M24.18,74.06h0a.9.9,0,0,1-.76-.48A31,31,0,0,0,19.89,68a.86.86,0,0,1,1.35-1.06,33,33,0,0,1,3,4.45l3.86-7.17a.85.85,0,0,1,1.16-.35A.86.86,0,0,1,29.56,65l-4.63,8.61A.87.87,0,0,1,24.18,74.06Z"/><path class="cls-2" d="M22.48,96.68h0a.87.87,0,0,1-.76-.49,31.31,31.31,0,0,0-3.51-5.6.86.86,0,1,1,1.35-1.06A33,33,0,0,1,22.5,94l3.85-7.18a.88.88,0,0,1,1.17-.35.87.87,0,0,1,.34,1.17l-4.62,8.6A.86.86,0,0,1,22.48,96.68Z"/><path class="cls-2" d="M44.51,51.81l-6.69,0a.86.86,0,0,1,0-1.72h0c13.32.13,26.81-.12,40.12-.71A.86.86,0,0,1,78,51.07C66.92,51.56,55.68,51.81,44.51,51.81Z"/><path class="cls-2" d="M44.51,74q-3.34,0-6.69,0a.86.86,0,0,1,0-1.71h0c13.32.12,26.81-.12,40.12-.72A.86.86,0,0,1,78,73.25C66.92,73.74,55.68,74,44.51,74Z"/><path class="cls-2" d="M45.11,96.18q-3.34,0-6.69,0a.87.87,0,0,1-.85-.87.86.86,0,0,1,.86-.85h0c13.31.12,26.81-.12,40.11-.71h0a.86.86,0,0,1,.86.82.87.87,0,0,1-.82.9C67.52,95.93,56.27,96.18,45.11,96.18Z"/><g class="cls-4"><path class="cls-2" d="M75.14,19.19a1.37,1.37,0,0,0-1-1.18c-1.14-.29-1.82.66-1.91,1.69,0,.25-.37,1.23-.32,1.17a9.07,9.07,0,0,1-.39.82c-.09.23-.62,1.06-.77,1.31a5,5,0,0,1-.46.46,12.59,12.59,0,0,1-1.72,1.11c-.85.3-1.76.41-2.62.7a19.85,19.85,0,0,1-2.27.7c-1.11,0-2.21.23-3.32.35a30.7,30.7,0,0,1-4.14.16c-3,0-5.93.35-8.89.34s-6.17-.35-9.26-.52c-3.25-.25-4.34-.34-6.84-1.31.22.09.4.18.05,0l-.07,0-.1,0,.09,0a12.1,12.1,0,0,0-2.44-1.1A1.68,1.68,0,0,0,27.68,27c2.56,1.37,5.09,2.93,8,3.37a62.9,62.9,0,0,0,8,.54,51.42,51.42,0,0,0,6.45.08,47.73,47.73,0,0,0,6.35-.44c.66,0,4.51-.53,4.89-.64a31.63,31.63,0,0,0,3.9-.65c1.6-.56,3.23-1,4.81-1.62A10.78,10.78,0,0,0,72,26.27l-.34.26a5.84,5.84,0,0,0,1.82-2.05,15.55,15.55,0,0,0,1.46-4A3.56,3.56,0,0,0,75.14,19.19Z"/></g><g class="cls-4"><path class="cls-2" d="M31.22,25h0Z"/></g><g class="cls-4"><path d="M90.8,102.15c-.26-3.46-.17-6.92-.47-10.37-.34-5-.87-10.07-1.08-15.12.07-2.76-.53-5.48-.51-8.24-.13-4.22.18-8.44.31-12.65.08-5.79-.09-11.58.44-17.35a79,79,0,0,1,.5-9.73c.07-1.11,0-2.22.11-3.32,0-.11,0-.21,0-.32a1.21,1.21,0,0,0,0-.5A1.55,1.55,0,0,0,89,23.21c-3-.53-2.1,4.31-2.52,6.48-.51,3.18-.3,6.39-.49,9.59-.53,6,0,11.95-.11,17.92,0,4.15-.2,8.3-.19,12.44,0,2.06.42,4.09.44,6.15.07,4.13.4,8.24.51,12.37q.5,8.2.5,16.41c.31,5,.53,10.07.4,15.11a7,7,0,0,1-.38,2.31,35.9,35.9,0,0,0-5.46-.18c-4.6,0-9.2-.11-13.8,0-3.41,0-6.81.36-10.22.39-5.16,0-10.32,0-15.48,0a50.65,50.65,0,0,0-6.4-.14c-5,.27-10.11,0-15.16-.12a45.24,45.24,0,0,0-7.27,0,7.58,7.58,0,0,1-1.66-.23,2,2,0,0,0-1.49.2,2,2,0,0,0,.46,3.52c3.23.76,6.58.31,9.85.7q6.47.26,12.92.23c2.9-.14,5.79-.2,8.68-.09,9.23.17,18.46.08,27.67-.48,5.19-.31,10.39,0,15.58-.25,1.19-.09,2.38.18,3.56,0a1.8,1.8,0,0,0,1.3-1.48,1.83,1.83,0,0,0,.35-.68,30.11,30.11,0,0,0,.83-7.46A122.1,122.1,0,0,0,90.8,102.15Z"/></g></g></g></svg>