<svg xmlns="http://www.w3.org/2000/svg" viewBox="0 0 119.97 117.03"><defs><style>.cls-1{fill:#fff;}.cls-2{fill:#100484;}.cls-3{fill:#d6d6f0;}.cls-4{opacity:0.13;}</style></defs><g id="Layer_2" data-name="Layer 2"><g id="Layer_1-2" data-name="Layer 1"><ellipse class="cls-1" cx="59.98" cy="58.51" rx="59.13" ry="57.66"/><path class="cls-2" d="M60,117C26.91,117,0,90.78,0,58.51S26.91,0,60,0s60,26.25,60,58.51S93.06,117,60,117ZM60,1.72C27.85,1.72,1.72,27.19,1.72,58.51s26.13,56.8,58.26,56.8,58.27-25.48,58.27-56.8S92.11,1.72,60,1.72Z"/><ellipse class="cls-1" cx="59.04" cy="58.51" rx="50.83" ry="50.02"/><path class="cls-2" d="M59,109.39c-28.5,0-51.69-22.82-51.69-50.88S30.54,7.63,59,7.63s51.69,22.83,51.69,50.88S87.55,109.39,59,109.39Zm0-100c-27.56,0-50,22-50,49.16s22.42,49.17,50,49.17,50-22.06,50-49.17S86.6,9.35,59,9.35Z"/><path class="cls-2" d="M59,59.37a.84.84,0,0,1-.77-.49L41.49,23.15a.86.86,0,1,1,1.56-.72L59.82,58.15a.86.86,0,0,1-.41,1.14A1,1,0,0,1,59,59.37Z"/><polygon class="cls-3" points="55.81 59.61 78.58 73.41 75.2 79.31 91.67 76.76 84.92 62.46 81.66 67.02 58.37 54.67 55.81 59.61"/><path class="cls-2" d="M75.2,80.17a.87.87,0,0,1-.71-.37.85.85,0,0,1,0-.91l3-5.18L55.37,60.35a.86.86,0,0,1-.32-1.13l2.56-4.94a.83.83,0,0,1,1.16-.36l22.63,12L84.22,62a.86.86,0,0,1,.77-.35.84.84,0,0,1,.7.48l6.76,14.3a.87.87,0,0,1-.65,1.22L75.33,80.16ZM56.94,59.3,79,72.68a.86.86,0,0,1,.3,1.16l-2.49,4.35,13.58-2.1L84.77,64.15l-2.41,3.37a.86.86,0,0,1-1.1.26L58.73,55.84Z"/><path class="cls-1" d="M59.77,53.2a5.36,5.36,0,0,0-4.6,4,5.2,5.2,0,1,0,10.25,1.35A5.47,5.47,0,0,0,59.77,53.2Z"/><path class="cls-2" d="M60.14,64.47a5.52,5.52,0,0,1-.71,0A6.29,6.29,0,0,1,54.33,57a6.23,6.23,0,0,1,5.36-4.65h0A5.92,5.92,0,0,1,64.24,54a6.14,6.14,0,0,1,2,4.55,6,6,0,0,1-2.18,4.37A6.15,6.15,0,0,1,60.14,64.47Zm-.29-10.42h0A4.55,4.55,0,0,0,56,57.39a4.57,4.57,0,0,0,3.66,5.33,4.56,4.56,0,0,0,4.9-4.19,4.46,4.46,0,0,0-1.49-3.26A4.26,4.26,0,0,0,59.85,54.05Z"/><path class="cls-2" d="M13,62.63a.86.86,0,0,1-.1-1.71,35.9,35.9,0,0,1,7.4-.07.87.87,0,0,1,.78.94.86.86,0,0,1-.94.77,34.51,34.51,0,0,0-7,.06Z"/><path class="cls-2" d="M58.72,102.66h0a.86.86,0,0,1-.85-.87l.06-7a.85.85,0,0,1,.85-.85h0a.85.85,0,0,1,.85.87l-.06,7A.86.86,0,0,1,58.72,102.66Z"/><path class="cls-2" d="M58.7,20.88h0a.85.85,0,0,1-.85-.87l.06-7a.85.85,0,0,1,.85-.85h0a.86.86,0,0,1,.85.87l-.06,7A.85.85,0,0,1,58.7,20.88Z"/><path class="cls-2" d="M104.18,58.11H104a19.82,19.82,0,0,0-5.1-.27.86.86,0,1,1-.13-1.71,21.9,21.9,0,0,1,5.54.29.86.86,0,0,1-.16,1.7Z"/><g class="cls-4"><path d="M66.73,59.16a1.48,1.48,0,0,0-1,1.3l-.07.08c-.62.75-1.19.75-2.25,1.73a1.43,1.43,0,0,0,1.85,2.1,8.62,8.62,0,0,0,3.05-2.63C69,60.5,68.32,58.82,66.73,59.16Z"/></g><g class="cls-4"><path class="cls-2" d="M59,8.42h0C58.94,8.41,58.91,8.4,59,8.42Z"/></g><g class="cls-4"><path class="cls-2" d="M84.4,15q-1.73-.85-3.51-1.59a61,61,0,0,0-7.35-2.48.73.73,0,0,1-.56-.75c-.82-.18-1.65-.33-2.49-.44a45.44,45.44,0,0,0-9.66-.78,1.32,1.32,0,0,0-.7-.34L59,8.42l.11,0c-.46-.06-.93-.08-1.4-.12a18.7,18.7,0,0,0-2.8,0A41.4,41.4,0,0,0,48,9.7a69.57,69.57,0,0,0-10.31,3.51c-1.67.67-7,2.9-9.64,5.33a43.25,43.25,0,0,0-7,7.62,1.16,1.16,0,0,0-.86-.11c-.85.41-.51.4-1.17,1.19-.71,1-1.33,2.08-1.95,3.15a25.89,25.89,0,0,0-2.18,4,1.78,1.78,0,0,0-.23,1.09,23.36,23.36,0,0,0-1.56,2.87c-2.87,5.65-4.56,14.38-4.27,22.07a76.12,76.12,0,0,0,1.34,9.73c1.11,4.81,1.93,6,3.58,10.11a1.24,1.24,0,0,0,.93.62c.81,1.92,1.86,4.58,3.06,6.86A18.88,18.88,0,0,0,21.53,93a7.82,7.82,0,0,0,1.38,1.2,1.1,1.1,0,0,0,1.39-.46c.57-1-.52-1.65-1.09-2.28a11.54,11.54,0,0,1-1-1.22,25.55,25.55,0,0,1-2.36-4.09C19,84.6,18.14,83,17.42,81.33c-.45-1.15-1.29-2.89-2.18-4.73A66.74,66.74,0,0,1,13,67.25a44.83,44.83,0,0,1,2.14-24.77h0a64,64,0,0,1,7.91-12c2.44-2.88,5.47-5.17,8.23-7.71a38.35,38.35,0,0,1,8.56-6,68,68,0,0,1,7.89-3,79,79,0,0,1,15.9-1.89c2.35.21,4.3.61,7.1,1.06a61.57,61.57,0,0,1,12.63,3.2,1,1,0,0,0,1.38-.93Z"/></g><g class="cls-4"><path class="cls-2" d="M115.93,38.94a1.22,1.22,0,0,0-1.08.61,1.37,1.37,0,0,0-.13.93c0,.22.06.8.09,1s.31,2.57.46,3.94c1.49,11.36,1,21-3.71,31.45-1.89,4.33-2.5,6.86-4.94,10.61-.07.1-.14.19-.2.29.4-.53.17-.22-.08.1-1,1.22-2,2.39-3.11,3.55A99.44,99.44,0,0,1,90.53,103a34.9,34.9,0,0,1-6.75,4.27c-.73.29.16-.07-.84.32-2.45.77-4.84,1.74-7.31,2.45-3.38.94-6.81,1.78-10.25,2.48-2.58.65-4.4.38-7.62.72a42.34,42.34,0,0,1-10.66-.43,72,72,0,0,1-9-2.5c-.91-.32-1.82-.62-2.73-.93a1.2,1.2,0,0,0-.91.12,1.18,1.18,0,0,0,.28,2.14,95.35,95.35,0,0,0,12.72,3.8c2,.25,4,.52,6,.64,2.17,0,4.34-.12,6.52-.23a40.7,40.7,0,0,0,10.12-1.24,78.23,78.23,0,0,0,8.26-2.14c1.94-.75,4-1.18,6-1.81a27.9,27.9,0,0,0,4.1-1.84,72.65,72.65,0,0,0,12.86-10.2,52.14,52.14,0,0,0,7-7.19c2.87-3.54,4-7.7,5.08-10.07,1.56-3.55,3.36-7,4.28-10.82a61.11,61.11,0,0,0,1.21-20.87A65,65,0,0,1,115.93,38.94Z"/></g></g></g></svg>