<svg xmlns="http://www.w3.org/2000/svg" viewBox="0 0 120.71 119.37"><defs><style>.cls-1{fill:#fff;}.cls-2{fill:#100484;}.cls-3{fill:#f9f9f9;}.cls-4{fill:#fcfcfc;}.cls-5{fill:#d6d6f0;}.cls-6{opacity:0.13;}</style></defs><g id="Layer_2" data-name="Layer 2"><g id="Layer_1-2" data-name="Layer 1"><path class="cls-1" d="M111.44,34.3a500.85,500.85,0,0,0-97.56.92c-4.43.47-9.38,1.38-11.25,5.43-2.28,4.94,2,10.61,6.85,13.07,7.44,3.76,16.11,4,24.46,4.05,24.94.11,50-1,74.45-6a3.5,3.5,0,0,0,2.49-1.3,3.51,3.51,0,0,0,.29-2A76.09,76.09,0,0,1,111.44,34.3Z"/><path class="cls-2" d="M37,58.64h-3c-8.84,0-17.4-.38-24.84-4.15C3.72,51.76-.58,45.56,1.85,40.29c2-4.3,6.92-5.39,11.94-5.93a504.17,504.17,0,0,1,97.73-.92.86.86,0,0,1,.77,1A75.28,75.28,0,0,0,112,48.5a4.34,4.34,0,0,1-.41,2.45,4.38,4.38,0,0,1-3.07,1.7C88.06,56.78,65.88,58.64,37,58.64ZM67.38,33.22A500.66,500.66,0,0,0,14,36.07C9.45,36.55,5,37.49,3.41,41,1.41,45.35,5.2,50.59,9.87,53c7.1,3.6,15.44,3.93,24.07,4,30.27.13,53.19-1.7,74.28-5.94.76-.16,1.61-.37,1.92-.89a2.81,2.81,0,0,0,.17-1.49,82,82,0,0,1,.17-13.52Q89,33.23,67.38,33.22Z"/><path class="cls-1" d="M72.11,8.92l24.13,3c-6.56,9.23-9.41,20.55-11.52,31.67-.37,1.94-.83,4.08-2.43,5.25a7.86,7.86,0,0,1-2.84,1.1,11.49,11.49,0,0,1-5.5.44c-3.72-.93-5.53-5.13-6.25-8.9C65.6,30.55,68,19.22,72.11,8.92Z"/><path class="cls-2" d="M75.56,51.38a7.59,7.59,0,0,1-1.82-.21c-4.61-1.14-6.29-6.49-6.88-9.57-1.9-9.85-.4-21,4.45-33a.86.86,0,0,1,.9-.53l24.13,3a.86.86,0,0,1,.68.51.85.85,0,0,1-.08.84c-6.51,9.15-9.31,20.47-11.38,31.33-.35,1.84-.83,4.36-2.76,5.78a8.49,8.49,0,0,1-3.15,1.25A17.61,17.61,0,0,1,75.56,51.38ZM72.66,9.85c-4.53,11.5-5.92,22.07-4.12,31.43.52,2.68,1.93,7.31,5.62,8.23a10.86,10.86,0,0,0,5.08-.44,7.22,7.22,0,0,0,2.55-1c1.28-1,1.72-2.77,2.09-4.72,2-10.6,4.73-21.63,10.85-30.83Z"/><path class="cls-3" d="M29.87,56c-1.2-18.25-2.09-37,3.53-54.42C48.21-.25,63.27,2.18,78,.86c-3.26,17.76-6.52,36-3.17,53.75Z"/><path class="cls-2" d="M29.87,56.9a.86.86,0,0,1-.86-.8c-1.3-19.84-1.94-37.65,3.58-54.74A.85.85,0,0,1,33.3.77c8-1,16.1-.77,24-.55A173.38,173.38,0,0,0,77.9,0a.86.86,0,0,1,.92,1c-3.06,16.7-6.53,35.62-3.17,53.45a.86.86,0,0,1-.17.69.87.87,0,0,1-.65.32L29.9,56.9ZM34.05,2.4C28.89,18.82,29.43,36,30.67,55.16l43.12-1.37c-3.05-17.45.16-35.72,3.14-52a190.89,190.89,0,0,1-19.72.13C49.59,1.72,41.72,1.49,34.05,2.4Z"/><path class="cls-4" d="M114.88,43.87Q64.74,45.19,14.55,45.69c-4.49,0-14.11,2.57-11.92-5C1,44.87.67,50.67.94,55.18q1.27,21.48.66,43c-.11,3.8-.25,7.7,1,11.3s4.15,6.9,7.8,7.71c35.19,2.31,68.55.87,103.53.67C111.57,92.45,114.13,69.26,114.88,43.87Z"/><path class="cls-2" d="M55.09,119.37c-14.79,0-29.52-.3-44.77-1.3l-.13,0c-3.69-.83-7-4.07-8.43-8.27C.51,106.1.62,102.19.73,98.4v-.23C1.15,83.91.93,69.46.08,55.23c-.33-5.59.33-11.16,1.75-14.89a.87.87,0,0,1,1.08-.5.86.86,0,0,1,.55,1c-.43,1.5-.38,2.59.17,3.25,1.24,1.5,5,1.16,8,.89,1.07-.1,2.08-.19,2.93-.2,33.29-.33,67.05-.94,100.32-1.82a.88.88,0,0,1,.63.25.84.84,0,0,1,.25.63c-.21,7-.56,13.93-.9,20.62-.9,18-1.76,34.94-.08,53.29a.83.83,0,0,1-.22.65.84.84,0,0,1-.63.28c-8.72,0-17.46.18-25.91.31C76.84,119.21,66,119.37,55.09,119.37Zm-44.59-3c26.36,1.73,51.19,1.35,77.47,1,8.16-.13,16.58-.25,25-.31-1.58-18.11-.74-34.87.16-52.59.32-6.39.66-13,.87-19.68-33,.87-66.44,1.47-99.44,1.79-.78,0-1.76.1-2.79.2-3.58.32-7.65.7-9.46-1.5h0a43.36,43.36,0,0,0-.5,9.89c.84,14.29,1.06,28.79.65,43.1v.23c-.11,3.63-.21,7.39.94,10.78C4.62,112.85,7.41,115.64,10.5,116.36Z"/><path class="cls-2" d="M56.83,17.78c-8.84,0-17.69-.16-26.47-.5a.86.86,0,0,1,.07-1.72c14.63.57,29.47.66,44.1.28h0a.86.86,0,0,1,.86.84.86.86,0,0,1-.83.88Q65.73,17.79,56.83,17.78Z"/><path class="cls-2" d="M61.55,45.39a.86.86,0,0,1-.86-.84,7,7,0,0,0-4.23-6.16,14,14,0,0,0-5-.71c-2.23,0-4.37,0-6.12,1a6,6,0,0,0-3.06,5.8.86.86,0,0,1-.76,1,.87.87,0,0,1-.94-.77,7.78,7.78,0,0,1,3.95-7.49c2.11-1.15,4.5-1.2,7-1.16a15.75,15.75,0,0,1,5.64.84,8.76,8.76,0,0,1,5.3,7.71.86.86,0,0,1-.84.88Z"/><path class="cls-1" d="M115,68.74a212.79,212.79,0,0,0-29,.56c-3.47.27-7,.65-10.12,2.2S70.14,76,70,79.51c-.15,3.93,2.9,7.41,6.5,9s7.64,1.68,11.57,1.75l24,.41a8.68,8.68,0,0,0,4.53-.73c2.57-1.47,3-5,3-7.9l.21-7.9a12.62,12.62,0,0,0-.8-3.91C118.66,69.13,115.6,68.62,115,68.74Z"/><path class="cls-2" d="M112.88,91.53h-.81l-24-.41C84.26,91,80,91,76.15,89.29c-3.62-1.6-7.19-5.25-7-9.81.14-3.46,2.62-6.89,6.34-8.75,3.2-1.6,6.76-2,10.43-2.29A213.41,213.41,0,0,1,115,67.88c1-.09,4.3.42,4.88,2.05a13.55,13.55,0,0,1,.86,4.23l-.22,7.89c-.09,3.34-.57,7-3.45,8.62A8.3,8.3,0,0,1,112.88,91.53Zm-8.51-22.19c-5.83,0-11.48.26-18.31.81-3.5.28-6.88.65-9.81,2.12-3.16,1.58-5.27,4.43-5.39,7.28-.15,3.73,3,6.85,6,8.17,3.49,1.54,7.61,1.61,11.24,1.67l24,.42a8,8,0,0,0,4.08-.63c2.15-1.22,2.52-4.32,2.6-7.18l.22-7.89a12.47,12.47,0,0,0-.76-3.61c-.25-.46-2.43-1-3.09-.91H115C111.19,69.43,107.75,69.34,104.37,69.34Z"/><path class="cls-5" d="M85,75.75a3.34,3.34,0,0,0-3.06.66,5.48,5.48,0,0,0-1.71,2.74,3.72,3.72,0,0,0-.15,1.72,3.15,3.15,0,0,0,.6,1.25,4.19,4.19,0,0,0,6.28,0A4.12,4.12,0,0,0,85,75.75Z"/><path class="cls-2" d="M83.84,84.4h0A4.73,4.73,0,0,1,80,82.64,3.9,3.9,0,0,1,79.26,81a4.43,4.43,0,0,1,.17-2.12,6.21,6.21,0,0,1,2-3.16,4.23,4.23,0,0,1,3.87-.82h0a4.78,4.78,0,0,1,3.16,3.23,5,5,0,0,1-.8,4.52A4.88,4.88,0,0,1,83.84,84.4Zm.31-7.93a2.74,2.74,0,0,0-1.66.61,4.61,4.61,0,0,0-1.41,2.31A2.75,2.75,0,0,0,81,80.7a2,2,0,0,0,.43.89,3.07,3.07,0,0,0,2.42,1.1h0a3.15,3.15,0,0,0,2.47-1.09,3.3,3.3,0,0,0,.5-2.95,3.1,3.1,0,0,0-2-2.09h0A2,2,0,0,0,84.15,76.47Z"/><path class="cls-2" d="M6,44.09A.27.27,0,0,1,5.84,44a.28.28,0,0,1-.07-.39,30.45,30.45,0,0,1,5.94-6.32.28.28,0,0,1,.4,0,.29.29,0,0,1,0,.4A30,30,0,0,0,6.24,44,.29.29,0,0,1,6,44.09Z"/><path class="cls-2" d="M12.93,43.32a.28.28,0,0,1-.19-.07.27.27,0,0,1,0-.4l5.42-6.12a.27.27,0,0,1,.4,0,.28.28,0,0,1,0,.4l-5.42,6.12A.31.31,0,0,1,12.93,43.32Z"/><path class="cls-2" d="M21.19,43.15a.26.26,0,0,1-.19-.07.29.29,0,0,1,0-.41l5-5.4a.29.29,0,0,1,.42.39l-5,5.4A.27.27,0,0,1,21.19,43.15Z"/><path class="cls-2" d="M87.36,42.28a.26.26,0,0,1-.19-.07.28.28,0,0,1,0-.4l5-5.64a.28.28,0,0,1,.4,0,.29.29,0,0,1,0,.41l-5,5.64A.29.29,0,0,1,87.36,42.28Z"/><path class="cls-2" d="M92.56,42.75a.29.29,0,0,1-.21-.48,57.19,57.19,0,0,1,6.54-6.1.29.29,0,0,1,.4,0,.29.29,0,0,1-.05.41,56,56,0,0,0-6.47,6A.29.29,0,0,1,92.56,42.75Z"/><path class="cls-2" d="M100.55,41.56a.28.28,0,0,1-.2-.08.28.28,0,0,1,0-.4l4.59-4.74a.28.28,0,0,1,.4,0,.3.3,0,0,1,0,.41l-4.59,4.73A.28.28,0,0,1,100.55,41.56Z"/><path class="cls-2" d="M106.32,41.86a.29.29,0,0,1-.23-.47l2.07-2.66a.29.29,0,0,1,.4,0,.28.28,0,0,1,0,.4l-2.07,2.67A.28.28,0,0,1,106.32,41.86Z"/><path class="cls-2" d="M9.39,111.43a.28.28,0,0,1-.23-.12c-1.42-1.92-1.63-4.37-1.73-6.91-.16-3.83-.22-7.71-.18-11.54a.29.29,0,1,1,.57,0c0,3.82,0,7.69.18,11.51.1,2.45.3,4.8,1.62,6.6a.28.28,0,0,1-.06.4A.34.34,0,0,1,9.39,111.43Z"/><path class="cls-2" d="M15.41,112.5a.29.29,0,0,1-.25-.15,13.9,13.9,0,0,1-1.6-7.51.3.3,0,0,1,.31-.26.29.29,0,0,1,.27.31,13.23,13.23,0,0,0,1.52,7.19.27.27,0,0,1-.11.38A.25.25,0,0,1,15.41,112.5Z"/><g class="cls-6"><path class="cls-2" d="M80.05,10.57a2.16,2.16,0,0,0-3.92.51c-1.36,7.6-2.35,13.46-3,20.1a91.5,91.5,0,0,0,.22,13.45,2,2,0,0,0,3.93-.74c0-1.06-.06-2.13-.06-3.2a115.24,115.24,0,0,1,1.47-19q.62-4,1.25-8C80.1,12.67,80.67,11.55,80.05,10.57Z"/></g><g class="cls-6"><path class="cls-2" d="M28.16,42.17a2.43,2.43,0,0,0-1.15,0c-.79.06-1.57,0-2.36.07-3.45.09-6.9.12-10.35.11a46.15,46.15,0,0,1-5.88-.16c-.34-.05-1.1-.18-1.39-.26a7.68,7.68,0,0,1-1-.32l-.25-.13a3,3,0,0,0-1.36-.62,2,2,0,0,0-1.3,3.76c2.51,1.78,5.74,2.12,8.74,2.19,2.5,0,5,0,7.48-.19,2.29-.11,4.57-.35,6.85-.54.89,0,1.94.21,2.66-.43A2,2,0,0,0,28.16,42.17Z"/></g><g class="cls-6"><path class="cls-2" d="M109.14,39.48c-3.08,0-6.16.39-9.25.28-4.49,0-9-.26-13.48.44A2.23,2.23,0,1,0,87,44.58c2.08-.43,7.35-.19,11.27-.32,3.61.09,7.18-.34,10.77-.54A2.12,2.12,0,1,0,109.14,39.48Z"/></g><g class="cls-6"><path class="cls-2" d="M112.93,93.8a1.63,1.63,0,0,0,.17-.22,2,2,0,0,0-1.19-2.93,2.07,2.07,0,0,0-1,0l-.38,0c-3.5.27-7,0-10.52.15a95,95,0,0,1-15-.9h-.09a15.9,15.9,0,0,1-1.86-.39h0a30.43,30.43,0,0,1-4-1.17c-.82-.35-1.57-1-2.51-.75a1.15,1.15,0,0,0-.31.11c-.3-.28-.52-.68-.93-.81A1.49,1.49,0,0,0,73,88.73c2.21,3,5.94,4.5,9.5,5.29a47.74,47.74,0,0,0,8.4,1.35,72,72,0,0,0,10.24.43c2.46,0,4.9-.29,7.35-.29,0,3.13.19,6.25.34,9.38.28,4.2.33,8.46,1.27,12.57a1.34,1.34,0,0,0,2.46.28c.52-1.56.28-3.29.39-4.91.05-3.85-.2-7.71-.1-11.56.07-1.6.25-3.2.39-4.79.07-.85.24-1.94-.31-2.49A1.15,1.15,0,0,0,112.93,93.8Z"/></g><g class="cls-6"><path class="cls-2" d="M115,45.15a1.4,1.4,0,0,0-2.69.54,206.94,206.94,0,0,1-1.48,21.78,1.45,1.45,0,0,0,2.46,1c.61-.62.37-1.55.54-2.34-.09.81.35-2.63.36-3.3.44-4.75.8-9.5.82-14.27C114.92,47.45,115.26,46.22,115,45.15Z"/></g></g></g></svg>